<?xml version="1.0" ?><!DOCTYPE svg  PUBLIC '-//W3C//DTD SVG 1.1//EN'  'http://www.w3.org/Graphics/SVG/1.1/DTD/svg11.dtd'><svg enable-background="new 0 0 91 91" height="91px" id="Layer_1" version="1.1" viewBox="0 0 91 91" width="91px" xml:space="preserve" xmlns="http://www.w3.org/2000/svg" xmlns:xlink="http://www.w3.org/1999/xlink"><g><path d="M71.805,20.757c-0.004-0.586-0.311-1.129-0.809-1.436c-0.5-0.309-1.121-0.336-1.648-0.076l-16.305,8.089   l-16.756-8.097c-0.498-0.24-1.084-0.225-1.568,0.047l-15.146,8.458c-0.537,0.3-0.871,0.868-0.871,1.484v41.346   c0,0.604,0.32,1.162,0.842,1.467c0.521,0.306,1.164,0.313,1.691,0.016l14.371-8.062l16.705,8.108   c0.234,0.114,0.488,0.171,0.742,0.171s0.51-0.058,0.746-0.173l10.908-5.327l-1.492-3.055l-8.463,4.133v-4.887h-3.4v4.894   l-14.104-6.846V23.478l14.104,6.815v3.159c-2.898,0.385-5.582,1.688-7.684,3.791c-2.529,2.529-3.924,5.891-3.924,9.466   s1.393,6.937,3.92,9.464c2.531,2.529,5.895,3.922,9.471,3.922c3.002,0,5.844-0.991,8.178-2.802l13.967,13.969l2.404-2.404   l-5.615-5.616L71.805,20.757z M68.646,59.819l-4.93-4.931c4.057-5.247,3.691-12.835-1.119-17.647   c-2.143-2.143-4.885-3.457-7.846-3.813v-3.147l13.67-6.78L68.646,59.819z M22.102,30.224l11.746-6.559v37.416L22.102,67.67V30.224z    M46.068,53.769c-1.887-1.886-2.926-4.393-2.924-7.059c0-2.668,1.039-5.176,2.928-7.063c1.887-1.887,4.395-2.927,7.063-2.927   c2.666,0,5.172,1.038,7.059,2.925c3.895,3.895,3.895,10.232,0.002,14.126c-1.887,1.885-4.393,2.923-7.061,2.923   S47.957,55.655,46.068,53.769z" fill="#010101"/></g></svg>